<svg xmlns="http://www.w3.org/2000/svg" viewBox="0 0 1200 720" role="img" aria-labelledby="title desc">
  <title id="title">Cybernova project preview</title>
  <desc id="desc">A stylized cyber security dashboard with threat signals, grid lines, and a risk assessment panel.</desc>
  <defs>
    <linearGradient id="bg" x1="0" x2="1" y1="0" y2="1">
      <stop offset="0%" stop-color="#071323"/>
      <stop offset="58%" stop-color="#092331"/>
      <stop offset="100%" stop-color="#0d1025"/>
    </linearGradient>
    <linearGradient id="cyan" x1="0" x2="1">
      <stop offset="0%" stop-color="#00f0ff"/>
      <stop offset="100%" stop-color="#7dfcff"/>
    </linearGradient>
    <filter id="glow">
      <feGaussianBlur stdDeviation="4" result="blur"/>
      <feMerge>
        <feMergeNode in="blur"/>
        <feMergeNode in="SourceGraphic"/>
      </feMerge>
    </filter>
  </defs>
  <rect width="1200" height="720" fill="url(#bg)"/>
  <g opacity="0.22" stroke="#1ee7f2" stroke-width="1">
    <path d="M0 80H1200M0 140H1200M0 200H1200M0 260H1200M0 320H1200M0 380H1200M0 440H1200M0 500H1200M0 560H1200M0 620H1200"/>
    <path d="M80 0V720M160 0V720M240 0V720M320 0V720M400 0V720M480 0V720M560 0V720M640 0V720M720 0V720M800 0V720M880 0V720M960 0V720M1040 0V720M1120 0V720"/>
  </g>
  <g font-family="Arial, sans-serif">
    <text x="92" y="92" fill="#ffffff" font-size="38" font-weight="800" letter-spacing="6">CYBERNOVA</text>
    <text x="96" y="124" fill="#69dce8" font-size="15" letter-spacing="5">ANALYTICS LTD // GABORONE</text>
    <text x="96" y="252" fill="#4ef4ff" font-size="16" letter-spacing="7">CYBER SECURITY SOLUTIONS</text>
    <text x="92" y="318" fill="#ffffff" font-size="54" font-weight="800">Welcome to <tspan fill="url(#cyan)">CyberNova</tspan></text>
    <text x="96" y="365" fill="#9fb5c6" font-size="22">AI-driven cyber analytics and threat intelligence for modern organizations.</text>
    <rect x="96" y="430" width="308" height="56" rx="8" fill="none" stroke="#00e7ff" stroke-width="2" filter="url(#glow)"/>
    <text x="134" y="466" fill="#7dfcff" font-size="18" font-weight="700" letter-spacing="3">REQUEST RISK ASSESSMENT</text>
  </g>
  <g transform="translate(735 166)" filter="url(#glow)">
    <circle cx="170" cy="170" r="132" fill="none" stroke="#00e7ff" stroke-width="2" opacity="0.35"/>
    <circle cx="170" cy="170" r="92" fill="none" stroke="#00e7ff" stroke-width="2" opacity="0.55"/>
    <path d="M170 62 240 96v66c0 66-42 112-70 126-28-14-70-60-70-126V96z" fill="#07303d" stroke="#00e7ff" stroke-width="4"/>
    <path d="M132 170l28 28 58-68" fill="none" stroke="#39ffdf" stroke-width="9" stroke-linecap="round" stroke-linejoin="round"/>
    <circle cx="62" cy="154" r="8" fill="#56ff22"/>
    <circle cx="292" cy="108" r="7" fill="#00e7ff"/>
    <circle cx="274" cy="258" r="7" fill="#b35cff"/>
  </g>
  <g font-family="Arial, sans-serif" font-size="16" font-weight="700">
    <rect x="704" y="230" width="150" height="34" rx="6" fill="#092d38" stroke="#00e7ff" opacity="0.85"/>
    <text x="720" y="252" fill="#7dfcff">THREAT_SCAN: ACTIVE</text>
    <rect x="960" y="272" width="124" height="34" rx="6" fill="#16351a" stroke="#59ff3b" opacity="0.85"/>
    <text x="976" y="294" fill="#97ff76">NODES: 1,247</text>
    <rect x="690" y="420" width="126" height="34" rx="6" fill="#34280d" stroke="#ffcc3e" opacity="0.85"/>
    <text x="706" y="442" fill="#ffd35b">RISK_LVL: 0.12</text>
    <rect x="930" y="468" width="118" height="34" rx="6" fill="#2d173f" stroke="#bc6dff" opacity="0.85"/>
    <text x="948" y="490" fill="#d7a1ff">AI_MODEL: v4.1</text>
  </g>
</svg>
